<?xml version="1.0" encoding="UTF-8"?>
<svg xmlns="http://www.w3.org/2000/svg" xmlns:xlink="http://www.w3.org/1999/xlink" fill-opacity="1" color-rendering="auto" color-interpolation="auto" stroke="black" text-rendering="auto" stroke-linecap="square" width="1238" stroke-miterlimit="10" stroke-opacity="1" shape-rendering="auto" fill="black" stroke-dasharray="none" font-weight="normal" stroke-width="1" height="938" font-family="'Dialog'" font-style="normal" stroke-linejoin="miter" font-size="12" stroke-dashoffset="0" image-rendering="auto">
  <!--Generated by ySVG 2.5-->
  <defs id="genericDefs"/>
  <g>
    <defs id="defs1">
      <clipPath clipPathUnits="userSpaceOnUse" id="clipPath1">
        <path d="M0 0 L1238 0 L1238 938 L0 938 L0 0 Z"/>
      </clipPath>
      <clipPath clipPathUnits="userSpaceOnUse" id="clipPath2">
        <path d="M89 247 L1327 247 L1327 1185 L89 1185 L89 247 Z"/>
      </clipPath>
      <clipPath clipPathUnits="userSpaceOnUse" id="clipPath3">
        <path d="M104 262 L104 309 L226 309 L226 262 Z"/>
      </clipPath>
      <clipPath clipPathUnits="userSpaceOnUse" id="clipPath4">
        <path d="M321 499 L321 546 L443 546 L443 499 Z"/>
      </clipPath>
      <clipPath clipPathUnits="userSpaceOnUse" id="clipPath5">
        <path d="M538 262 L538 309 L660 309 L660 262 Z"/>
      </clipPath>
      <clipPath clipPathUnits="userSpaceOnUse" id="clipPath6">
        <path d="M755 375 L755 422 L877 422 L877 375 Z"/>
      </clipPath>
      <clipPath clipPathUnits="userSpaceOnUse" id="clipPath7">
        <path d="M971 731 L971 778 L1093 778 L1093 731 Z"/>
      </clipPath>
      <clipPath clipPathUnits="userSpaceOnUse" id="clipPath8">
        <path d="M1188 849 L1188 896 L1310 896 L1310 849 Z"/>
      </clipPath>
    </defs>
    <g fill="white" text-rendering="geometricPrecision" shape-rendering="geometricPrecision" transform="translate(-89,-247)" stroke="white">
      <rect x="89" width="1238" height="938" y="247" clip-path="url(#clipPath2)" stroke="none"/>
    </g>
    <g fill="rgb(255,204,0)" text-rendering="geometricPrecision" shape-rendering="geometricPrecision" transform="matrix(1,0,0,1,-89,-247)" stroke="rgb(255,204,0)">
      <rect x="105" width="120" height="45" y="263" clip-path="url(#clipPath2)" stroke="none"/>
      <rect x="104" y="262" clip-path="url(#clipPath2)" fill="yellow" width="1" height="47" stroke="none"/>
      <rect x="105" y="262" clip-path="url(#clipPath2)" fill="yellow" width="120" height="1" stroke="none"/>
      <rect x="105" y="308" clip-path="url(#clipPath2)" fill="rgb(178,142,0)" width="121" height="1" stroke="none"/>
      <rect x="225" y="262" clip-path="url(#clipPath2)" fill="rgb(178,142,0)" width="1" height="46" stroke="none"/>
    </g>
    <g font-size="13" stroke-linecap="butt" transform="matrix(1,0,0,1,-89,-247)" text-rendering="geometricPrecision" font-family="sans-serif" shape-rendering="geometricPrecision" font-weight="bold" stroke-miterlimit="1.45">
      <text x="134.6912" xml:space="preserve" y="280.1802" clip-path="url(#clipPath3)" stroke="none">:Benutzer</text>
    </g>
    <g fill="rgb(255,204,0)" text-rendering="geometricPrecision" shape-rendering="geometricPrecision" transform="matrix(1,0,0,1,-89,-247)" stroke="rgb(255,204,0)">
      <rect x="322" width="120" height="45" y="500" clip-path="url(#clipPath2)" stroke="none"/>
      <rect x="321" y="499" clip-path="url(#clipPath2)" fill="yellow" width="1" height="47" stroke="none"/>
      <rect x="322" y="499" clip-path="url(#clipPath2)" fill="yellow" width="120" height="1" stroke="none"/>
      <rect x="322" y="545" clip-path="url(#clipPath2)" fill="rgb(178,142,0)" width="121" height="1" stroke="none"/>
      <rect x="442" y="499" clip-path="url(#clipPath2)" fill="rgb(178,142,0)" width="1" height="46" stroke="none"/>
    </g>
    <g font-size="13" stroke-linecap="butt" transform="matrix(1,0,0,1,-89,-247)" text-rendering="geometricPrecision" font-family="sans-serif" shape-rendering="geometricPrecision" font-weight="bold" stroke-miterlimit="1.45">
      <text x="353.6543" xml:space="preserve" y="517.4302" clip-path="url(#clipPath4)" stroke="none">:WebApp</text>
    </g>
    <g fill="rgb(255,204,0)" text-rendering="geometricPrecision" shape-rendering="geometricPrecision" transform="matrix(1,0,0,1,-89,-247)" stroke="rgb(255,204,0)">
      <rect x="539" width="120" height="45" y="263" clip-path="url(#clipPath2)" stroke="none"/>
      <rect x="538" y="262" clip-path="url(#clipPath2)" fill="yellow" width="1" height="47" stroke="none"/>
      <rect x="539" y="262" clip-path="url(#clipPath2)" fill="yellow" width="120" height="1" stroke="none"/>
      <rect x="539" y="308" clip-path="url(#clipPath2)" fill="rgb(178,142,0)" width="121" height="1" stroke="none"/>
      <rect x="659" y="262" clip-path="url(#clipPath2)" fill="rgb(178,142,0)" width="1" height="46" stroke="none"/>
    </g>
    <g font-size="13" stroke-linecap="butt" transform="matrix(1,0,0,1,-89,-247)" text-rendering="geometricPrecision" font-family="sans-serif" shape-rendering="geometricPrecision" font-weight="bold" stroke-miterlimit="1.45">
      <text x="570.4719" xml:space="preserve" y="280.1802" clip-path="url(#clipPath5)" stroke="none">:Browser</text>
    </g>
    <g fill="rgb(255,204,0)" text-rendering="geometricPrecision" shape-rendering="geometricPrecision" transform="matrix(1,0,0,1,-89,-247)" stroke="rgb(255,204,0)">
      <rect x="756" width="120" height="45" y="376" clip-path="url(#clipPath2)" stroke="none"/>
      <rect x="755" y="375" clip-path="url(#clipPath2)" fill="yellow" width="1" height="47" stroke="none"/>
      <rect x="756" y="375" clip-path="url(#clipPath2)" fill="yellow" width="120" height="1" stroke="none"/>
      <rect x="756" y="421" clip-path="url(#clipPath2)" fill="rgb(178,142,0)" width="121" height="1" stroke="none"/>
      <rect x="876" y="375" clip-path="url(#clipPath2)" fill="rgb(178,142,0)" width="1" height="46" stroke="none"/>
    </g>
    <g font-size="13" stroke-linecap="butt" transform="matrix(1,0,0,1,-89,-247)" text-rendering="geometricPrecision" font-family="sans-serif" shape-rendering="geometricPrecision" font-weight="bold" stroke-miterlimit="1.45">
      <text x="771.1189" xml:space="preserve" y="392.9927" clip-path="url(#clipPath6)" stroke="none">:HTTP-Server</text>
    </g>
    <g fill="rgb(255,204,0)" text-rendering="geometricPrecision" shape-rendering="geometricPrecision" transform="matrix(1,0,0,1,-89,-247)" stroke="rgb(255,204,0)">
      <rect x="972" width="120" height="45" y="732" clip-path="url(#clipPath2)" stroke="none"/>
      <rect x="971" y="731" clip-path="url(#clipPath2)" fill="yellow" width="1" height="47" stroke="none"/>
      <rect x="972" y="731" clip-path="url(#clipPath2)" fill="yellow" width="120" height="1" stroke="none"/>
      <rect x="972" y="777" clip-path="url(#clipPath2)" fill="rgb(178,142,0)" width="121" height="1" stroke="none"/>
      <rect x="1092" y="731" clip-path="url(#clipPath2)" fill="rgb(178,142,0)" width="1" height="46" stroke="none"/>
    </g>
    <g font-size="13" stroke-linecap="butt" transform="matrix(1,0,0,1,-89,-247)" text-rendering="geometricPrecision" font-family="sans-serif" shape-rendering="geometricPrecision" font-weight="bold" stroke-miterlimit="1.45">
      <text x="999.9558" xml:space="preserve" y="748.8677" clip-path="url(#clipPath7)" stroke="none">:GameCtrl</text>
    </g>
    <g fill="rgb(255,204,0)" text-rendering="geometricPrecision" shape-rendering="geometricPrecision" transform="matrix(1,0,0,1,-89,-247)" stroke="rgb(255,204,0)">
      <rect x="1189" width="120" height="45" y="850" clip-path="url(#clipPath2)" stroke="none"/>
      <rect x="1188" y="849" clip-path="url(#clipPath2)" fill="yellow" width="1" height="47" stroke="none"/>
      <rect x="1189" y="849" clip-path="url(#clipPath2)" fill="yellow" width="120" height="1" stroke="none"/>
      <rect x="1189" y="895" clip-path="url(#clipPath2)" fill="rgb(178,142,0)" width="121" height="1" stroke="none"/>
      <rect x="1309" y="849" clip-path="url(#clipPath2)" fill="rgb(178,142,0)" width="1" height="46" stroke="none"/>
    </g>
    <g font-size="13" stroke-linecap="butt" transform="matrix(1,0,0,1,-89,-247)" text-rendering="geometricPrecision" font-family="sans-serif" shape-rendering="geometricPrecision" font-weight="bold" stroke-miterlimit="1.45">
      <text x="1228.9641" xml:space="preserve" y="867.4927" clip-path="url(#clipPath8)" stroke="none">:Game</text>
    </g>
    <g fill="rgb(255,204,0)" text-rendering="geometricPrecision" shape-rendering="geometricPrecision" transform="matrix(1,0,0,1,-89,-247)" stroke="rgb(255,204,0)">
      <path d="M104.9756 339.6118 L211.9756 339.6118 L211.9756 354.6118 L226.9756 354.6118 L226.9756 458.2368 L104.9756 458.2368 Z" clip-path="url(#clipPath2)" stroke="none"/>
      <path fill="white" d="M211.9756 339.6118 L211.9756 354.6118 L226.9756 354.6118 Z" clip-path="url(#clipPath2)" fill-rule="evenodd" stroke="none"/>
    </g>
    <g text-rendering="geometricPrecision" stroke-miterlimit="1.45" shape-rendering="geometricPrecision" transform="matrix(1,0,0,1,-89,-247)" stroke-linecap="butt">
      <path fill="none" d="M104.9756 339.6118 L211.9756 339.6118 L211.9756 354.6118 L226.9756 354.6118 L226.9756 458.2368 L104.9756 458.2368 Z" clip-path="url(#clipPath2)"/>
      <path fill="none" d="M211.9756 339.6118 L211.9756 354.6118 L226.9756 354.6118 Z" fill-rule="evenodd" clip-path="url(#clipPath2)"/>
      <text x="118.0605" xml:space="preserve" y="396.3931" font-family="sans-serif" clip-path="url(#clipPath2)" stroke="none">Gibt die Adresse</text>
      <text x="117.8291" xml:space="preserve" y="410.5259" font-family="sans-serif" clip-path="url(#clipPath2)" stroke="none">der Webseite ein</text>
    </g>
    <g fill="rgb(255,204,0)" text-rendering="geometricPrecision" shape-rendering="geometricPrecision" transform="matrix(1,0,0,1,-89,-247)" stroke="rgb(255,204,0)">
      <path d="M538.3252 339.6118 L645.3252 339.6118 L645.3252 354.6118 L660.3252 354.6118 L660.3252 458.2368 L538.3252 458.2368 Z" clip-path="url(#clipPath2)" stroke="none"/>
      <path fill="white" d="M645.3252 339.6118 L645.3252 354.6118 L660.3252 354.6118 Z" clip-path="url(#clipPath2)" fill-rule="evenodd" stroke="none"/>
    </g>
    <g text-rendering="geometricPrecision" stroke-miterlimit="1.45" shape-rendering="geometricPrecision" transform="matrix(1,0,0,1,-89,-247)" stroke-linecap="butt">
      <path fill="none" d="M538.3252 339.6118 L645.3252 339.6118 L645.3252 354.6118 L660.3252 354.6118 L660.3252 458.2368 L538.3252 458.2368 Z" clip-path="url(#clipPath2)"/>
      <path fill="none" d="M645.3252 339.6118 L645.3252 354.6118 L660.3252 354.6118 Z" fill-rule="evenodd" clip-path="url(#clipPath2)"/>
      <text x="554.8438" xml:space="preserve" y="396.3931" font-family="sans-serif" clip-path="url(#clipPath2)" stroke="none">Sendet Anfrage</text>
      <text x="558.8896" xml:space="preserve" y="410.5259" font-family="sans-serif" clip-path="url(#clipPath2)" stroke="none">An den Server</text>
    </g>
    <g fill="rgb(255,204,0)" text-rendering="geometricPrecision" shape-rendering="geometricPrecision" transform="matrix(1,0,0,1,-89,-247)" stroke="rgb(255,204,0)">
      <path d="M755 461.6821 L862 461.6821 L862 476.6821 L877 476.6821 L877 580.3071 L755 580.3071 Z" clip-path="url(#clipPath2)" stroke="none"/>
      <path fill="white" d="M862 461.6821 L862 476.6821 L877 476.6821 Z" clip-path="url(#clipPath2)" fill-rule="evenodd" stroke="none"/>
    </g>
    <g text-rendering="geometricPrecision" stroke-miterlimit="1.45" shape-rendering="geometricPrecision" transform="matrix(1,0,0,1,-89,-247)" stroke-linecap="butt">
      <path fill="none" d="M755 461.6821 L862 461.6821 L862 476.6821 L877 476.6821 L877 580.3071 L755 580.3071 Z" clip-path="url(#clipPath2)"/>
      <path fill="none" d="M862 461.6821 L862 476.6821 L877 476.6821 Z" fill-rule="evenodd" clip-path="url(#clipPath2)"/>
      <text x="785.5869" xml:space="preserve" y="511.397" font-family="sans-serif" clip-path="url(#clipPath2)" stroke="none">Sendet die</text>
      <text x="760.4912" xml:space="preserve" y="525.5298" font-family="sans-serif" clip-path="url(#clipPath2)" stroke="none">statischen Dateien </text>
      <text x="771.5303" xml:space="preserve" y="539.6626" font-family="sans-serif" clip-path="url(#clipPath2)" stroke="none">für die webApp</text>
    </g>
    <g fill="rgb(255,204,0)" text-rendering="geometricPrecision" shape-rendering="geometricPrecision" transform="matrix(1,0,0,1,-89,-247)" stroke="rgb(255,204,0)">
      <path d="M538.3252 458.2368 L645.3252 458.2368 L645.3252 473.2368 L660.3252 473.2368 L660.3252 576.8618 L538.3252 576.8618 Z" clip-path="url(#clipPath2)" stroke="none"/>
      <path fill="white" d="M645.3252 458.2368 L645.3252 473.2368 L660.3252 473.2368 Z" clip-path="url(#clipPath2)" fill-rule="evenodd" stroke="none"/>
    </g>
    <g text-rendering="geometricPrecision" stroke-miterlimit="1.45" shape-rendering="geometricPrecision" transform="matrix(1,0,0,1,-89,-247)" stroke-linecap="butt">
      <path fill="none" d="M538.3252 458.2368 L645.3252 458.2368 L645.3252 473.2368 L660.3252 473.2368 L660.3252 576.8618 L538.3252 576.8618 Z" clip-path="url(#clipPath2)"/>
      <path fill="none" d="M645.3252 458.2368 L645.3252 473.2368 L660.3252 473.2368 Z" fill-rule="evenodd" clip-path="url(#clipPath2)"/>
      <text x="550.1006" xml:space="preserve" y="522.0845" font-family="sans-serif" clip-path="url(#clipPath2)" stroke="none">Rendert die Seite</text>
    </g>
    <g fill="rgb(255,204,0)" text-rendering="geometricPrecision" shape-rendering="geometricPrecision" transform="matrix(1,0,0,1,-89,-247)" stroke="rgb(255,204,0)">
      <path d="M321.6504 576.8618 L428.6504 576.8618 L428.6504 591.8618 L443.6504 591.8618 L443.6504 695.4868 L321.6504 695.4868 Z" clip-path="url(#clipPath2)" stroke="none"/>
      <path fill="white" d="M428.6504 576.8618 L428.6504 591.8618 L443.6504 591.8618 Z" clip-path="url(#clipPath2)" fill-rule="evenodd" stroke="none"/>
    </g>
    <g text-rendering="geometricPrecision" stroke-miterlimit="1.45" shape-rendering="geometricPrecision" transform="matrix(1,0,0,1,-89,-247)" stroke-linecap="butt">
      <path fill="none" d="M321.6504 576.8618 L428.6504 576.8618 L428.6504 591.8618 L443.6504 591.8618 L443.6504 695.4868 L321.6504 695.4868 Z" clip-path="url(#clipPath2)"/>
      <path fill="none" d="M428.6504 576.8618 L428.6504 591.8618 L443.6504 591.8618 Z" fill-rule="evenodd" clip-path="url(#clipPath2)"/>
      <text x="331.1348" xml:space="preserve" y="626.5767" font-family="sans-serif" clip-path="url(#clipPath2)" stroke="none">Lädt Matchtokens</text>
      <text x="357.9355" xml:space="preserve" y="640.7095" font-family="sans-serif" clip-path="url(#clipPath2)" stroke="none">aus dem</text>
      <text x="345.6309" xml:space="preserve" y="654.8423" font-family="sans-serif" clip-path="url(#clipPath2)" stroke="none">LocalStorage</text>
    </g>
    <g fill="rgb(255,204,0)" text-rendering="geometricPrecision" shape-rendering="geometricPrecision" transform="matrix(1,0,0,1,-89,-247)" stroke="rgb(255,204,0)">
      <path d="M538.3252 576.8618 L645.3252 576.8618 L645.3252 591.8618 L660.3252 591.8618 L660.3252 695.4868 L538.3252 695.4868 Z" clip-path="url(#clipPath2)" stroke="none"/>
      <path fill="white" d="M645.3252 576.8618 L645.3252 591.8618 L660.3252 591.8618 Z" clip-path="url(#clipPath2)" fill-rule="evenodd" stroke="none"/>
    </g>
    <g text-rendering="geometricPrecision" stroke-miterlimit="1.45" shape-rendering="geometricPrecision" transform="matrix(1,0,0,1,-89,-247)" stroke-linecap="butt">
      <path fill="none" d="M538.3252 576.8618 L645.3252 576.8618 L645.3252 591.8618 L660.3252 591.8618 L660.3252 695.4868 L538.3252 695.4868 Z" clip-path="url(#clipPath2)"/>
      <path fill="none" d="M645.3252 576.8618 L645.3252 591.8618 L660.3252 591.8618 Z" fill-rule="evenodd" clip-path="url(#clipPath2)"/>
      <text x="557.791" xml:space="preserve" y="633.6431" font-family="sans-serif" clip-path="url(#clipPath2)" stroke="none">Initialisiert die</text>
      <text x="575.8906" xml:space="preserve" y="647.7759" font-family="sans-serif" clip-path="url(#clipPath2)" stroke="none">webApp</text>
    </g>
    <g fill="rgb(255,204,0)" text-rendering="geometricPrecision" shape-rendering="geometricPrecision" transform="matrix(1,0,0,1,-89,-247)" stroke="rgb(255,204,0)">
      <path d="M538.3252 695.4868 L645.3252 695.4868 L645.3252 710.4868 L660.3252 710.4868 L660.3252 814.1118 L538.3252 814.1118 Z" clip-path="url(#clipPath2)" stroke="none"/>
      <path fill="white" d="M645.3252 695.4868 L645.3252 710.4868 L660.3252 710.4868 Z" clip-path="url(#clipPath2)" fill-rule="evenodd" stroke="none"/>
    </g>
    <g text-rendering="geometricPrecision" stroke-miterlimit="1.45" shape-rendering="geometricPrecision" transform="matrix(1,0,0,1,-89,-247)" stroke-linecap="butt">
      <path fill="none" d="M538.3252 695.4868 L645.3252 695.4868 L645.3252 710.4868 L660.3252 710.4868 L660.3252 814.1118 L538.3252 814.1118 Z" clip-path="url(#clipPath2)"/>
      <path fill="none" d="M645.3252 695.4868 L645.3252 710.4868 L660.3252 710.4868 Z" fill-rule="evenodd" clip-path="url(#clipPath2)"/>
      <text x="561.7842" xml:space="preserve" y="745.2017" font-family="sans-serif" clip-path="url(#clipPath2)" stroke="none">Liefert Daten</text>
      <text x="574.6104" xml:space="preserve" y="759.3345" font-family="sans-serif" clip-path="url(#clipPath2)" stroke="none">aus dem</text>
      <text x="562.3057" xml:space="preserve" y="773.4673" font-family="sans-serif" clip-path="url(#clipPath2)" stroke="none">LocalStorage</text>
    </g>
    <g fill="rgb(255,204,0)" text-rendering="geometricPrecision" shape-rendering="geometricPrecision" transform="matrix(1,0,0,1,-89,-247)" stroke="rgb(255,204,0)">
      <path d="M321.6504 695.4868 L428.6504 695.4868 L428.6504 710.4868 L443.6504 710.4868 L443.6504 814.1118 L321.6504 814.1118 Z" clip-path="url(#clipPath2)" stroke="none"/>
      <path fill="white" d="M428.6504 695.4868 L428.6504 710.4868 L443.6504 710.4868 Z" clip-path="url(#clipPath2)" fill-rule="evenodd" stroke="none"/>
    </g>
    <g text-rendering="geometricPrecision" stroke-miterlimit="1.45" shape-rendering="geometricPrecision" transform="matrix(1,0,0,1,-89,-247)" stroke-linecap="butt">
      <path fill="none" d="M321.6504 695.4868 L428.6504 695.4868 L428.6504 710.4868 L443.6504 710.4868 L443.6504 814.1118 L321.6504 814.1118 Z" clip-path="url(#clipPath2)"/>
      <path fill="none" d="M428.6504 695.4868 L428.6504 710.4868 L443.6504 710.4868 Z" fill-rule="evenodd" clip-path="url(#clipPath2)"/>
      <text x="336.4258" xml:space="preserve" y="752.2681" font-family="sans-serif" clip-path="url(#clipPath2)" stroke="none">Zeigt Matchliste</text>
      <text x="375.6133" xml:space="preserve" y="766.4009" font-family="sans-serif" clip-path="url(#clipPath2)" stroke="none">an</text>
    </g>
    <g fill="rgb(255,204,0)" text-rendering="geometricPrecision" shape-rendering="geometricPrecision" transform="matrix(1,0,0,1,-89,-247)" stroke="rgb(255,204,0)">
      <path d="M104.9756 695.4868 L211.9756 695.4868 L211.9756 710.4868 L226.9756 710.4868 L226.9756 814.1118 L104.9756 814.1118 Z" clip-path="url(#clipPath2)" stroke="none"/>
      <path fill="white" d="M211.9756 695.4868 L211.9756 710.4868 L226.9756 710.4868 Z" clip-path="url(#clipPath2)" fill-rule="evenodd" stroke="none"/>
    </g>
    <g text-rendering="geometricPrecision" stroke-miterlimit="1.45" shape-rendering="geometricPrecision" transform="matrix(1,0,0,1,-89,-247)" stroke-linecap="butt">
      <path fill="none" d="M104.9756 695.4868 L211.9756 695.4868 L211.9756 710.4868 L226.9756 710.4868 L226.9756 814.1118 L104.9756 814.1118 Z" clip-path="url(#clipPath2)"/>
      <path fill="none" d="M211.9756 695.4868 L211.9756 710.4868 L226.9756 710.4868 Z" fill-rule="evenodd" clip-path="url(#clipPath2)"/>
      <text x="138.624" xml:space="preserve" y="752.2681" font-family="sans-serif" clip-path="url(#clipPath2)" stroke="none">Klickt auf</text>
      <text x="127.875" xml:space="preserve" y="766.4009" font-family="sans-serif" clip-path="url(#clipPath2)" stroke="none">"Neues Spiel"</text>
    </g>
    <g fill="rgb(255,204,0)" text-rendering="geometricPrecision" shape-rendering="geometricPrecision" transform="matrix(1,0,0,1,-89,-247)" stroke="rgb(255,204,0)">
      <path d="M321.6504 814.1118 L428.6504 814.1118 L428.6504 829.1118 L443.6504 829.1118 L443.6504 932.7368 L321.6504 932.7368 Z" clip-path="url(#clipPath2)" stroke="none"/>
      <path fill="white" d="M428.6504 814.1118 L428.6504 829.1118 L443.6504 829.1118 Z" clip-path="url(#clipPath2)" fill-rule="evenodd" stroke="none"/>
    </g>
    <g text-rendering="geometricPrecision" stroke-miterlimit="1.45" shape-rendering="geometricPrecision" transform="matrix(1,0,0,1,-89,-247)" stroke-linecap="butt">
      <path fill="none" d="M321.6504 814.1118 L428.6504 814.1118 L428.6504 829.1118 L443.6504 829.1118 L443.6504 932.7368 L321.6504 932.7368 Z" clip-path="url(#clipPath2)"/>
      <path fill="none" d="M428.6504 814.1118 L428.6504 829.1118 L443.6504 829.1118 Z" fill-rule="evenodd" clip-path="url(#clipPath2)"/>
      <text x="343.2988" xml:space="preserve" y="870.8931" font-family="sans-serif" clip-path="url(#clipPath2)" stroke="none">Stellt Anfrage</text>
      <text x="343.041" xml:space="preserve" y="885.0259" font-family="sans-serif" clip-path="url(#clipPath2)" stroke="none">an den Server</text>
    </g>
    <g fill="rgb(255,204,0)" text-rendering="geometricPrecision" shape-rendering="geometricPrecision" transform="matrix(1,0,0,1,-89,-247)" stroke="rgb(255,204,0)">
      <path d="M755 814.1118 L862 814.1118 L862 829.1118 L877 829.1118 L877 932.7368 L755 932.7368 Z" clip-path="url(#clipPath2)" stroke="none"/>
      <path fill="white" d="M862 814.1118 L862 829.1118 L877 829.1118 Z" clip-path="url(#clipPath2)" fill-rule="evenodd" stroke="none"/>
    </g>
    <g text-rendering="geometricPrecision" stroke-miterlimit="1.45" shape-rendering="geometricPrecision" transform="matrix(1,0,0,1,-89,-247)" stroke-linecap="butt">
      <path fill="none" d="M755 814.1118 L862 814.1118 L862 829.1118 L877 829.1118 L877 932.7368 L755 932.7368 Z" clip-path="url(#clipPath2)"/>
      <path fill="none" d="M862 814.1118 L862 829.1118 L877 829.1118 Z" fill-rule="evenodd" clip-path="url(#clipPath2)"/>
      <text x="771.5654" xml:space="preserve" y="863.8267" font-family="sans-serif" clip-path="url(#clipPath2)" stroke="none">Nimmt Anfrage</text>
      <text x="759.1348" xml:space="preserve" y="877.9595" font-family="sans-serif" clip-path="url(#clipPath2)" stroke="none">entgegen und leitet</text>
      <text x="760.2451" xml:space="preserve" y="892.0923" font-family="sans-serif" clip-path="url(#clipPath2)" stroke="none">weiter an GameCtrl</text>
    </g>
    <g fill="rgb(255,204,0)" text-rendering="geometricPrecision" shape-rendering="geometricPrecision" transform="matrix(1,0,0,1,-89,-247)" stroke="rgb(255,204,0)">
      <path d="M971.6748 814.1118 L1078.6748 814.1118 L1078.6748 829.1118 L1093.6748 829.1118 L1093.6748 932.7368 L971.6748 932.7368 Z" clip-path="url(#clipPath2)" stroke="none"/>
      <path fill="white" d="M1078.6748 814.1118 L1078.6748 829.1118 L1093.6748 829.1118 Z" clip-path="url(#clipPath2)" fill-rule="evenodd" stroke="none"/>
    </g>
    <g text-rendering="geometricPrecision" stroke-miterlimit="1.45" shape-rendering="geometricPrecision" transform="matrix(1,0,0,1,-89,-247)" stroke-linecap="butt">
      <path fill="none" d="M971.6748 814.1118 L1078.6748 814.1118 L1078.6748 829.1118 L1093.6748 829.1118 L1093.6748 932.7368 L971.6748 932.7368 Z" clip-path="url(#clipPath2)"/>
      <path fill="none" d="M1078.6748 814.1118 L1078.6748 829.1118 L1093.6748 829.1118 Z" fill-rule="evenodd" clip-path="url(#clipPath2)"/>
      <text x="978.9209" xml:space="preserve" y="870.8931" font-family="sans-serif" clip-path="url(#clipPath2)" stroke="none">Erstellt über Game</text>
      <text x="989.0664" xml:space="preserve" y="885.0259" font-family="sans-serif" clip-path="url(#clipPath2)" stroke="none">ein neues Spiel</text>
    </g>
    <g fill="rgb(255,204,0)" text-rendering="geometricPrecision" shape-rendering="geometricPrecision" transform="matrix(1,0,0,1,-89,-247)" stroke="rgb(255,204,0)">
      <path d="M1188.3496 932.7368 L1295.3496 932.7368 L1295.3496 947.7368 L1310.3496 947.7368 L1310.3496 1051.3618 L1188.3496 1051.3618 Z" clip-path="url(#clipPath2)" stroke="none"/>
      <path fill="white" d="M1295.3496 932.7368 L1295.3496 947.7368 L1310.3496 947.7368 Z" clip-path="url(#clipPath2)" fill-rule="evenodd" stroke="none"/>
    </g>
    <g text-rendering="geometricPrecision" stroke-miterlimit="1.45" shape-rendering="geometricPrecision" transform="matrix(1,0,0,1,-89,-247)" stroke-linecap="butt">
      <path fill="none" d="M1188.3496 932.7368 L1295.3496 932.7368 L1295.3496 947.7368 L1310.3496 947.7368 L1310.3496 1051.3618 L1188.3496 1051.3618 Z" clip-path="url(#clipPath2)"/>
      <path fill="none" d="M1295.3496 932.7368 L1295.3496 947.7368 L1310.3496 947.7368 Z" fill-rule="evenodd" clip-path="url(#clipPath2)"/>
      <text x="1189.4697" xml:space="preserve" y="968.3188" font-family="sans-serif" clip-path="url(#clipPath2)" stroke="none">Erstellt und übergibt</text>
      <text x="1220.6475" xml:space="preserve" y="982.4517" font-family="sans-serif" clip-path="url(#clipPath2)" stroke="none">2 Tokens,</text>
      <text x="1201.7744" xml:space="preserve" y="996.5845" font-family="sans-serif" clip-path="url(#clipPath2)" stroke="none">Legt neue Daten</text>
      <text x="1199.082" xml:space="preserve" y="1010.7173" font-family="sans-serif" clip-path="url(#clipPath2)" stroke="none">in der Datenbank</text>
      <text x="1242.3125" xml:space="preserve" y="1024.8501" font-family="sans-serif" clip-path="url(#clipPath2)" stroke="none">an</text>
    </g>
    <g fill="rgb(255,204,0)" text-rendering="geometricPrecision" shape-rendering="geometricPrecision" transform="matrix(1,0,0,1,-89,-247)" stroke="rgb(255,204,0)">
      <path d="M755 932.7368 L862 932.7368 L862 947.7368 L877 947.7368 L877 1051.3618 L755 1051.3618 Z" clip-path="url(#clipPath2)" stroke="none"/>
      <path fill="white" d="M862 932.7368 L862 947.7368 L877 947.7368 Z" clip-path="url(#clipPath2)" fill-rule="evenodd" stroke="none"/>
    </g>
    <g text-rendering="geometricPrecision" stroke-miterlimit="1.45" shape-rendering="geometricPrecision" transform="matrix(1,0,0,1,-89,-247)" stroke-linecap="butt">
      <path fill="none" d="M755 932.7368 L862 932.7368 L862 947.7368 L877 947.7368 L877 1051.3618 L755 1051.3618 Z" clip-path="url(#clipPath2)"/>
      <path fill="none" d="M862 932.7368 L862 947.7368 L877 947.7368 Z" fill-rule="evenodd" clip-path="url(#clipPath2)"/>
      <text x="757.207" xml:space="preserve" y="982.4517" font-family="sans-serif" clip-path="url(#clipPath2)" stroke="none">Schickt Tokens über</text>
      <text x="769.4326" xml:space="preserve" y="996.5845" font-family="sans-serif" clip-path="url(#clipPath2)" stroke="none">HTTP-Response</text>
      <text x="772.8779" xml:space="preserve" y="1010.7173" font-family="sans-serif" clip-path="url(#clipPath2)" stroke="none">an die webApp</text>
    </g>
    <g fill="rgb(255,204,0)" text-rendering="geometricPrecision" shape-rendering="geometricPrecision" transform="matrix(1,0,0,1,-89,-247)" stroke="rgb(255,204,0)">
      <path d="M971.6748 932.7368 L1078.6748 932.7368 L1078.6748 947.7368 L1093.6748 947.7368 L1093.6748 1051.3618 L971.6748 1051.3618 Z" clip-path="url(#clipPath2)" stroke="none"/>
      <path fill="white" d="M1078.6748 932.7368 L1078.6748 947.7368 L1093.6748 947.7368 Z" clip-path="url(#clipPath2)" fill-rule="evenodd" stroke="none"/>
    </g>
    <g text-rendering="geometricPrecision" stroke-miterlimit="1.45" shape-rendering="geometricPrecision" transform="matrix(1,0,0,1,-89,-247)" stroke-linecap="butt">
      <path fill="none" d="M971.6748 932.7368 L1078.6748 932.7368 L1078.6748 947.7368 L1093.6748 947.7368 L1093.6748 1051.3618 L971.6748 1051.3618 Z" clip-path="url(#clipPath2)"/>
      <path fill="none" d="M1078.6748 932.7368 L1078.6748 947.7368 L1093.6748 947.7368 Z" fill-rule="evenodd" clip-path="url(#clipPath2)"/>
      <text x="984.4375" xml:space="preserve" y="989.5181" font-family="sans-serif" clip-path="url(#clipPath2)" stroke="none">Übergibt Tokens</text>
      <text x="987.0215" xml:space="preserve" y="1003.6509" font-family="sans-serif" clip-path="url(#clipPath2)" stroke="none">an HTTP-Server</text>
    </g>
    <g fill="rgb(255,204,0)" text-rendering="geometricPrecision" shape-rendering="geometricPrecision" transform="matrix(1,0,0,1,-89,-247)" stroke="rgb(255,204,0)">
      <path d="M321.6504 932.7368 L428.6504 932.7368 L428.6504 947.7368 L443.6504 947.7368 L443.6504 1051.3618 L321.6504 1051.3618 Z" clip-path="url(#clipPath2)" stroke="none"/>
      <path fill="white" d="M428.6504 932.7368 L428.6504 947.7368 L443.6504 947.7368 Z" clip-path="url(#clipPath2)" fill-rule="evenodd" stroke="none"/>
    </g>
    <g text-rendering="geometricPrecision" stroke-miterlimit="1.45" shape-rendering="geometricPrecision" transform="matrix(1,0,0,1,-89,-247)" stroke-linecap="butt">
      <path fill="none" d="M321.6504 932.7368 L428.6504 932.7368 L428.6504 947.7368 L443.6504 947.7368 L443.6504 1051.3618 L321.6504 1051.3618 Z" clip-path="url(#clipPath2)"/>
      <path fill="none" d="M428.6504 932.7368 L428.6504 947.7368 L443.6504 947.7368 Z" fill-rule="evenodd" clip-path="url(#clipPath2)"/>
      <text x="332.7168" xml:space="preserve" y="989.5181" font-family="sans-serif" clip-path="url(#clipPath2)" stroke="none">Speichert Tokens</text>
      <text x="336.3965" xml:space="preserve" y="1003.6509" font-family="sans-serif" clip-path="url(#clipPath2)" stroke="none">im LocalStorage</text>
    </g>
    <g fill="rgb(255,204,0)" text-rendering="geometricPrecision" shape-rendering="geometricPrecision" transform="matrix(1,0,0,1,-89,-247)" stroke="rgb(255,204,0)">
      <path d="M538.3252 1051.3618 L645.3252 1051.3618 L645.3252 1066.3618 L660.3252 1066.3618 L660.3252 1169.9868 L538.3252 1169.9868 Z" clip-path="url(#clipPath2)" stroke="none"/>
      <path fill="white" d="M645.3252 1051.3618 L645.3252 1066.3618 L660.3252 1066.3618 Z" clip-path="url(#clipPath2)" fill-rule="evenodd" stroke="none"/>
    </g>
    <g text-rendering="geometricPrecision" stroke-miterlimit="1.45" shape-rendering="geometricPrecision" transform="matrix(1,0,0,1,-89,-247)" stroke-linecap="butt">
      <path fill="none" d="M538.3252 1051.3618 L645.3252 1051.3618 L645.3252 1066.3618 L660.3252 1066.3618 L660.3252 1169.9868 L538.3252 1169.9868 Z" clip-path="url(#clipPath2)"/>
      <path fill="none" d="M645.3252 1051.3618 L645.3252 1066.3618 L660.3252 1066.3618 Z" fill-rule="evenodd" clip-path="url(#clipPath2)"/>
      <text x="549.3916" xml:space="preserve" y="1108.1431" font-family="sans-serif" clip-path="url(#clipPath2)" stroke="none">Speichert Tokens</text>
      <text x="553.0713" xml:space="preserve" y="1122.2759" font-family="sans-serif" clip-path="url(#clipPath2)" stroke="none">im LocalStorage</text>
    </g>
    <g fill="rgb(255,204,0)" text-rendering="geometricPrecision" shape-rendering="geometricPrecision" transform="matrix(1,0,0,1,-89,-247)" stroke="rgb(255,204,0)">
      <path d="M321.6504 1051.3618 L428.6504 1051.3618 L428.6504 1066.3618 L443.6504 1066.3618 L443.6504 1169.9868 L321.6504 1169.9868 Z" clip-path="url(#clipPath2)" stroke="none"/>
      <path fill="white" d="M428.6504 1051.3618 L428.6504 1066.3618 L443.6504 1066.3618 Z" clip-path="url(#clipPath2)" fill-rule="evenodd" stroke="none"/>
    </g>
    <g text-rendering="geometricPrecision" stroke-miterlimit="1.45" shape-rendering="geometricPrecision" transform="matrix(1,0,0,1,-89,-247)" stroke-linecap="butt">
      <path fill="none" d="M321.6504 1051.3618 L428.6504 1051.3618 L428.6504 1066.3618 L443.6504 1066.3618 L443.6504 1169.9868 L321.6504 1169.9868 Z" clip-path="url(#clipPath2)"/>
      <path fill="none" d="M428.6504 1051.3618 L428.6504 1066.3618 L443.6504 1066.3618 Z" fill-rule="evenodd" clip-path="url(#clipPath2)"/>
      <text x="331.8057" xml:space="preserve" y="1101.0767" font-family="sans-serif" clip-path="url(#clipPath2)" stroke="none">Zeigt dem Nutzer</text>
      <text x="334.7207" xml:space="preserve" y="1115.2095" font-family="sans-serif" clip-path="url(#clipPath2)" stroke="none">den Link für den</text>
      <text x="361.7998" xml:space="preserve" y="1129.3423" font-family="sans-serif" clip-path="url(#clipPath2)" stroke="none">Partner</text>
    </g>
    <g fill="rgb(255,204,0)" text-rendering="geometricPrecision" shape-rendering="geometricPrecision" transform="matrix(1,0,0,1,-89,-247)" stroke="rgb(255,204,0)">
      <path d="M104.9756 1051.3618 L211.9756 1051.3618 L211.9756 1066.3618 L226.9756 1066.3618 L226.9756 1169.9868 L104.9756 1169.9868 Z" clip-path="url(#clipPath2)" stroke="none"/>
      <path fill="white" d="M211.9756 1051.3618 L211.9756 1066.3618 L226.9756 1066.3618 Z" clip-path="url(#clipPath2)" fill-rule="evenodd" stroke="none"/>
    </g>
    <g text-rendering="geometricPrecision" stroke-miterlimit="1.45" shape-rendering="geometricPrecision" transform="matrix(1,0,0,1,-89,-247)" stroke-linecap="butt">
      <path fill="none" d="M104.9756 1051.3618 L211.9756 1051.3618 L211.9756 1066.3618 L226.9756 1066.3618 L226.9756 1169.9868 L104.9756 1169.9868 Z" clip-path="url(#clipPath2)"/>
      <path fill="none" d="M211.9756 1051.3618 L211.9756 1066.3618 L226.9756 1066.3618 Z" fill-rule="evenodd" clip-path="url(#clipPath2)"/>
      <text x="124.0254" xml:space="preserve" y="1101.0767" font-family="sans-serif" clip-path="url(#clipPath2)" stroke="none">Nutzer schickt</text>
      <text x="114.3691" xml:space="preserve" y="1115.2095" font-family="sans-serif" clip-path="url(#clipPath2)" stroke="none">den Link an einen</text>
      <text x="145.7373" xml:space="preserve" y="1129.3423" font-family="sans-serif" clip-path="url(#clipPath2)" stroke="none">Freund</text>
      <path fill="none" stroke-dasharray="6,2" d="M165.9756 309.6053 L165.9756 339.6545" clip-path="url(#clipPath2)"/>
      <path fill="none" stroke-dasharray="6,2" d="M599.3252 309.6053 L599.3252 339.6545" clip-path="url(#clipPath2)"/>
      <path fill="none" d="M226.9947 398.9243 L530.2852 398.9243" clip-path="url(#clipPath2)"/>
      <path d="M538.2852 398.9243 L526.2852 393.9243 L529.2852 398.9243 L526.2852 403.9243 Z" clip-path="url(#clipPath2)" stroke="none"/>
      <path fill="none" stroke-dasharray="6,2" d="M816 422.4384 L816 461.6588" clip-path="url(#clipPath2)"/>
      <path fill="none" d="M660.3444 433.3013 L748.037 482.7056" clip-path="url(#clipPath2)"/>
      <path d="M755.007 486.6324 L747.0062 476.386 L747.1657 482.2148 L742.0978 485.0985 Z" clip-path="url(#clipPath2)" stroke="none"/>
      <path fill="none" d="M754.9808 520.0244 L668.3172 518.6464" clip-path="url(#clipPath2)"/>
      <path d="M660.3182 518.5192 L672.2372 523.7094 L669.3171 518.6622 L672.3962 513.7106 Z" clip-path="url(#clipPath2)" stroke="none"/>
      <path fill="none" stroke-dasharray="6,2" d="M382.6504 546.8552 L382.6504 576.9045" clip-path="url(#clipPath2)"/>
      <path fill="none" d="M658.5196 576.8908 L717.6562 636.1743 L668.3107 636.1743" clip-path="url(#clipPath2)"/>
      <path d="M660.3107 636.1743 L672.3107 641.1743 L669.3107 636.1743 L672.3107 631.1743 Z" clip-path="url(#clipPath2)" stroke="none"/>
      <path fill="none" d="M538.306 636.1743 L451.6434 636.1743" clip-path="url(#clipPath2)"/>
      <path d="M443.6434 636.1743 L455.6434 641.1743 L452.6434 636.1743 L455.6434 631.1743 Z" clip-path="url(#clipPath2)" stroke="none"/>
      <path fill="none" d="M443.6695 669.5811 L531.315 717.5651" clip-path="url(#clipPath2)"/>
      <path d="M538.3322 721.4069 L530.2075 711.2585 L530.4378 717.0849 L525.4053 720.03 Z" clip-path="url(#clipPath2)" stroke="none"/>
      <path fill="none" d="M538.306 754.7993 L451.6434 754.7993" clip-path="url(#clipPath2)"/>
      <path d="M443.6434 754.7993 L455.6434 759.7993 L452.6434 754.7993 L455.6434 749.7993 Z" clip-path="url(#clipPath2)" stroke="none"/>
      <path fill="none" d="M321.6313 754.7993 L234.9686 754.7993" clip-path="url(#clipPath2)"/>
      <path d="M226.9686 754.7993 L238.9686 759.7993 L235.9686 754.7993 L238.9686 749.7993 Z" clip-path="url(#clipPath2)" stroke="none"/>
      <path fill="none" stroke-dasharray="6,2" d="M165.9756 458.2224 L165.9756 695.4622" clip-path="url(#clipPath2)"/>
      <path fill="none" d="M226.9947 788.2061 L314.6402 836.1901" clip-path="url(#clipPath2)"/>
      <path d="M321.6574 840.0319 L313.5327 829.8835 L313.7631 835.7099 L308.7305 838.655 Z" clip-path="url(#clipPath2)" stroke="none"/>
      <path fill="none" d="M443.6695 873.4243 L746.96 873.4243" clip-path="url(#clipPath2)"/>
      <path d="M754.96 873.4243 L742.96 868.4243 L745.96 873.4243 L742.96 878.4243 Z" clip-path="url(#clipPath2)" stroke="none"/>
      <path fill="none" stroke-dasharray="6,2" d="M816 580.3209 L816 814.1381" clip-path="url(#clipPath2)"/>
      <path fill="none" d="M877.0192 873.4243 L963.6818 873.4243" clip-path="url(#clipPath2)"/>
      <path d="M971.6818 873.4243 L959.6818 868.4243 L962.6818 873.4243 L959.6818 878.4243 Z" clip-path="url(#clipPath2)" stroke="none"/>
      <path fill="none" stroke-dasharray="6,2" d="M1032.6748 778.2869 L1032.6748 814.1027" clip-path="url(#clipPath2)"/>
      <path fill="none" d="M1093.694 906.8311 L1181.3395 954.8151" clip-path="url(#clipPath2)"/>
      <path d="M1188.3566 958.657 L1180.2319 948.5085 L1180.4623 954.3349 L1175.4297 957.28 Z" clip-path="url(#clipPath2)" stroke="none"/>
      <path fill="none" stroke-dasharray="6,2" d="M1249.3496 896.9119 L1249.3496 932.7277" clip-path="url(#clipPath2)"/>
      <path fill="none" d="M1188.3304 992.0493 L1101.6678 992.0493" clip-path="url(#clipPath2)"/>
      <path d="M1093.6678 992.0493 L1105.6678 997.0493 L1102.6678 992.0493 L1105.6678 987.0493 Z" clip-path="url(#clipPath2)" stroke="none"/>
      <path fill="none" d="M971.6556 992.0493 L884.993 992.0493" clip-path="url(#clipPath2)"/>
      <path d="M876.993 992.0493 L888.993 997.0493 L885.993 992.0493 L888.993 987.0493 Z" clip-path="url(#clipPath2)" stroke="none"/>
      <path fill="none" d="M754.9808 992.0493 L451.6904 992.0493" clip-path="url(#clipPath2)"/>
      <path d="M443.6904 992.0493 L455.6904 997.0493 L452.6904 992.0493 L455.6904 987.0493 Z" clip-path="url(#clipPath2)" stroke="none"/>
      <path fill="none" d="M443.6695 1025.4561 L531.315 1073.4402" clip-path="url(#clipPath2)"/>
      <path d="M538.3322 1077.2819 L530.2074 1067.1335 L530.4378 1072.96 L525.4053 1075.9052 Z" clip-path="url(#clipPath2)" stroke="none"/>
      <path fill="none" stroke-dasharray="6,2" d="M599.3252 814.0974 L599.3252 1051.3372" clip-path="url(#clipPath2)"/>
      <path fill="none" d="M538.306 1110.6743 L451.6434 1110.6743" clip-path="url(#clipPath2)"/>
      <path d="M443.6434 1110.6743 L455.6434 1115.6743 L452.6434 1110.6743 L455.6434 1105.6743 Z" clip-path="url(#clipPath2)" stroke="none"/>
      <path fill="none" d="M321.6313 1110.6743 L234.9686 1110.6743" clip-path="url(#clipPath2)"/>
      <path d="M226.9686 1110.6743 L238.9686 1115.6743 L235.9686 1110.6743 L238.9686 1105.6743 Z" clip-path="url(#clipPath2)" stroke="none"/>
    </g>
  </g>
</svg>
